<?xml version="1.0" encoding="utf-8"?>
<!-- Generator: Adobe Illustrator 19.0.0, SVG Export Plug-In . SVG Version: 6.00 Build 0)  -->
<svg version="1.1" xmlns="http://www.w3.org/2000/svg" xmlns:xlink="http://www.w3.org/1999/xlink" x="0px" y="0px"
	 viewBox="0 0 137.9 245.8" style="enable-background:new 0 0 137.9 245.8;" xml:space="preserve">
<style type="text/css">
	.st0{display:none;}
	.st1{display:inline;fill:none;stroke:#FEC01B;stroke-miterlimit:10;}
	.st2{fill:#417FB2;}
	.st3{fill:#FEDD55;}
	.st4{fill:none;stroke:#000000;stroke-width:5;stroke-miterlimit:10;}
	.st5{fill:none;}
</style>
<g id="Layer_2" class="st0">
	<path class="st1" d="M-3144-156.6c0,0-21.5-10.4-25.7,10.5"/>
	<path class="st1" d="M-3147.6-153.5c1.5-1.6,3.4-3.1,5.1-4.4c1.5-1.2,3.1-2.4,4.8-3.4c2.5-1.4,5.3-2.3,8.2-1.8
		c2.3,0.4,4.4,1.6,6.2,3c1.7,1.2,3.2,2.7,4.5,4.3c1.5,1.9,2.7,4.1,3.6,6.4c4.7,2.7,9.5,5.4,14,8.4c3.6,2.4,7.1,4.9,9.9,8.1
		c1.9,2.2,3.6,4.7,4.2,7.6c0.5,2.3,0.2,4.6-0.6,6.8c-0.8,2.2-2,4.2-3.5,6c-1.5,1.9-3.3,3.7-5.2,5.3c-1.9,1.6-4,3.1-6.1,4.4
		c-1.9,1.2-3.8,2.2-5.8,3.2c-1.4,0.7-2.8,1.3-4.2,1.9c-0.8,0.3-1.6,0.6-2.4,0.9c-0.1,0.1-0.3,0.1-0.4,0.2"/>
	<path class="st1" d="M-3142-107.2c0,0,17,1.3,28.3-16.4"/>
	
		<ellipse transform="matrix(-0.8554 -0.5179 0.5179 -0.8554 -5751.4507 -1879.5952)" class="st1" cx="-3138.1" cy="-137.1" rx="9.8" ry="12.4"/>
	<path class="st1" d="M-3156.1-151.7c-4.6-1.9-10.6,0.7-13.8,6.3c-3.5,5.9-2.5,13,2.2,15.7c0.2,0.1,0.5,0.3,0.7,0.4"/>
	<path class="st1" d="M-3167.3-129.2c2.9-1.3,5.8-3.6,8.1-6.7c4.1-5.7,5.1-12.3,2.8-16.2"/>
	<path class="st1" d="M-3165.2-93.5c0,0,16.9,2.6,29.5-14.2"/>
	<path class="st1" d="M-3167.5-129.1c-9.6,4.6-18.3,13.5-23.6,22.4c-2.6,4.3-5,9-6.8,13.8"/>
	<path class="st1" d="M-3189.7-108.1c-0.8,5,5.7,11.7,15.4,15.6c10.4,4.1,20.4,3.4,22.4-1.6c0.1-0.3,0.2-0.5,0.2-0.8"/>
</g>
<g id="Layer_4" class="st0">
	
		<image style="display:inline;overflow:visible;" width="199" height="253" xlink:href="C8F49AD1.jpg"  transform="matrix(0.9916 0 0 0.9525 -1933.667 -308.174)">
	</image>
</g>
<g id="Layer_3">
	<g id="XMLID_60_">
		<g>
			<path class="st2" d="M109.8,135.2c1.7,0.1,3.4,0.2,5.1,0.1c8.5-0.4,16.1-3.9,11.9-14l0.1,0c5.4,4.8,10.3,12,4.8,18.4
				c-4.9,5.7-11.7,8-18.9,9.4c-3.3,0.6-6.6,1.1-9.9,1.5c0,0,0-0.1-0.1,0c-3.2,1.7-12.8,4.4-14.7,0.9c-0.8-1.5-0.6-4-0.4-6.3
				c1.8-7.1,10.3-9.7,17.5-10.1C106.9,135.1,108.4,135.1,109.8,135.2z"/>
			<path class="st2" d="M105.4,6.6l0.9-0.1c14-1.8,25.8,19.8,25.8,19.8c11.1,23.9,5.7,38.8-13.3,53l-4.5,3.8
				C98.5,97.9,90.3,109.6,85.4,118l-1.5,0.5l-0.3-0.9c-0.6-2.3-11.1-3.7-23.8-4.2l0-0.3l14.9-14c-0.4,0.1-0.7,0.2-1,0.3
				c-21.2,5.2-35.9-4.8-41-9.1c-1.3-1.1-2-1.8-2-1.8c-10.8-7.7-16.8-25.9-7.6-37.3c7.5-9.3,20.3-12.8,28.6-16
				C62.1,21.9,69.5,13.9,73.7,9.6C75.2,8.2,76.6,7,78,6C91.1-3.8,100.2,1.1,105.4,6.6z M93.5,39.1c5.5-6.4,6.2-14.9,1.4-19
				c-4.7-4.1-13-2.2-18.6,4.2c-5.5,6.4-6.2,14.9-1.5,19C79.7,47.5,88,45.6,93.5,39.1z"/>
			<path class="st3" d="M102.8,150.6c0.1-0.1,0.2-0.1,0.1,0C102.9,150.6,102.9,150.6,102.8,150.6z"/>
			<path class="st3" d="M102.8,150.6c0,0,0.1,0,0.1,0C102.9,150.7,102.6,151,102.8,150.6z"/>
			<path class="st3" d="M39.7,114.2c24.6,0,30.1,0.7,41.9,4.4c0,0-21,2.6-41.9,2.3c-21-0.2-34.2-0.9-34.8-2.3
				C5,118.6,15.2,114.2,39.7,114.2z"/>
			<path d="M47.4,166c-0.1-3.6-4.4-5.2-4.1-9.2c0.3-5.3,7.4-7.4,11.6-8.7c-1.1,1.1-2.4,2.4-3.6,3.3c-1.8,1.3-3.3,2.7-4.1,4.9
				c-0.5,1.3,2.5,3.8,3.1,7.3c0.5,2.6-2.1,5.1-4.2,6.2C46.6,168.5,47.5,167.5,47.4,166z"/>
			<path d="M28.3,150.7c3.2-6.4,12.9-9.3,14-16.9c2.3,3-0.8,8.3-3.2,10.5c-2.7,2.6-6.3,4.3-8,7.8c-1,2-0.9,4.3-0.2,6.4
				c0.7,1.9,1.7,3.6,2.6,5.2C29.3,161.5,25.9,155.4,28.3,150.7z"/>
			<path class="st2" d="M13.6,181.2l0.3-1.3c6.5,4.5,14.6,6.9,22.2,7.2c12.7,0.5,26.2,0.5,36.1-8.5c1.3-1.1,2.4-2.3,3.4-3.3
				c-2,5.9-1.5,10.9,1.5,16.7c3.6,6.9,11.3,7.3,17.7,2.9c10-6.9-7.4-20.8-8.6-29.7c1.6-1,3.3-1.9,5.4-2.7c4.3-1.6,7.7-2.1,11.2-3.2
				c16.2,13,35.9,30.5,29.1,52.3c-1.9,6-6,13.2-10.4,17.7c-19.9,19.9-56.3,19.3-80.9,10.6c-11.5-4-23.7-11.7-30.3-22.6
				C3.5,205.9,7.3,191.9,13.6,181.2z"/>
			<path class="st3" d="M39.7,114.2c-24.5,0-34.8,4.4-34.8,4.4c0.5,1.4,13.8,2.1,34.8,2.3c21,0.2,41.9-2.3,41.9-2.3
				C69.8,114.9,64.3,114.2,39.7,114.2z M87.8,145.2c-0.2,2.3-0.4,4.8,0.4,6.3c1.9,3.5,11.6,0.8,14.7-0.9c-0.2,0.4,0.1,0.1,0.1,0
				c3.3-0.5,6.6-0.9,9.9-1.5c-0.9,3.4-1.6,5.8-1.6,5.8c-3.1,2.3-5.8,3.5-8.4,4.4c-3.5,1.1-6.9,1.5-11.2,3.2
				c-2.1,0.8-3.9,1.7-5.4,2.7c-4.3,2.8-6.9,6.2-10.6,10.1c-1,1.1-2.2,2.2-3.4,3.3c-9.9,8.9-23.4,8.9-36.1,8.5
				c-7.6-0.3-15.7-2.7-22.2-7.2c-6.5-4.5-11.5-11-13-19.6c-0.3-1.6,0-41.6,0-41.6s0.5-2.6,16-4.4c8.5-1,27.4-1.5,42.9-0.8
				c12.7,0.5,23.2,1.9,23.8,4.2l0.3,0.9l0.7,2.5c3.3-0.3,1.5,0,1.5,0c13.3-0.2,27.6,0.7,28.7,10.2c0.2,1.3,0.2,2.7,0.2,4.1
				c-1.7,0.1-3.4,0-5.1-0.1c-1.4-0.1-2.9-0.1-4.5-0.1c0-0.7,0-1.4,0-2.2c0,0-0.3-1.1-2.7-2.3c-4.3-2.1-9.9-0.9-14.4-0.5
				c0.7,3.8,0.1,7.9,0,11.7C88,142.8,87.9,144,87.8,145.2z M51.3,151.4c1.3-1,2.6-2.2,3.6-3.3c-4.2,1.2-11.3,3.3-11.6,8.7
				c-0.2,4,4,5.5,4.1,9.2c0,1.6-0.8,2.5-1.3,3.8c2-1.2,4.6-3.6,4.2-6.2c-0.7-3.5-3.6-6-3.1-7.3C48,154.2,49.6,152.8,51.3,151.4z
				 M39.2,144.3c2.4-2.3,5.5-7.5,3.2-10.5c-1.1,7.6-10.8,10.6-14,16.9c-2.4,4.7,1,10.7,5.2,13.1c-0.9-1.7-2-3.3-2.6-5.2
				c-0.7-2.1-0.8-4.4,0.2-6.4C32.9,148.7,36.5,146.9,39.2,144.3z"/>
		</g>
		<g>
			<path class="st4" d="M33.6,163.8c-0.9-1.7-2-3.3-2.6-5.2c-0.7-2.1-0.8-4.4,0.2-6.4c1.7-3.5,5.3-5.2,8-7.8
				c2.4-2.3,5.5-7.5,3.2-10.5c-1.1,7.6-10.8,10.6-14,16.9C25.9,155.4,29.3,161.5,33.6,163.8z"/>
			<path class="st4" d="M54.9,148.1c-4.2,1.2-11.3,3.3-11.6,8.7c-0.2,4,4,5.5,4.1,9.2c0,1.6-0.8,2.5-1.3,3.8c2-1.2,4.6-3.6,4.2-6.2
				c-0.7-3.5-3.6-6-3.1-7.3c0.8-2.1,2.3-3.5,4.1-4.9C52.6,150.5,53.9,149.2,54.9,148.1z"/>
		</g>
	</g>
	<path class="st5" d="M102.9,168.8"/>
</g>
</svg>
